<svg width="480" height="108" viewBox="0 0 480 108" fill="none" xmlns="http://www.w3.org/2000/svg">
<path d="M76.131 56.365V62.9961C76.131 80.5015 62.0045 94.7145 44.657 94.7145C35.9373 94.7145 28.0458 91.0975 22.34 85.301L79.7431 27.4753L83.8154 23.3714C76.177 9.45985 61.4983 0 44.657 0C20.0393 0 0 20.1949 0 45.0039V51.635H13.1601V45.0039C13.1601 27.4985 27.2866 13.2855 44.634 13.2855C53.0777 13.2855 60.7391 16.6707 66.3989 22.1426L8.67373 80.316L5.13061 83.9098C12.608 98.2155 27.5167 108 44.657 108C69.2748 108 89.3141 87.8051 89.3141 62.9961V56.365H76.154H76.131Z" fill="#2B5EC0"/>
<path d="M130.819 82.3795C130.129 82.3795 129.508 82.1245 129.002 81.5912C128.495 81.058 128.219 80.4551 128.219 79.7595C128.219 79.2726 128.334 78.8089 128.541 78.3916C128.749 77.9742 128.933 77.6496 129.071 77.441C130.037 75.9107 131.578 73.7544 133.695 70.9953C135.812 68.2361 138.251 65.106 140.988 61.605C143.726 58.1039 146.556 54.5101 149.478 50.8467C152.4 47.1833 155.161 43.6591 157.807 40.2971C160.452 36.9352 162.707 33.9905 164.571 31.4865H132.177C131.486 31.4865 130.865 31.2314 130.359 30.6981C129.853 30.1649 129.577 29.562 129.577 28.8665C129.577 28.1013 129.83 27.4753 130.359 26.9652C130.888 26.4783 131.486 26.2233 132.177 26.2233H169.793C170.484 26.2233 171.082 26.4783 171.565 27.0116C172.048 27.5449 172.301 28.1941 172.301 28.9592C172.301 29.5157 172.163 29.9794 171.887 30.3272C170.714 32.0893 168.965 34.4543 166.687 37.4684C164.387 40.4826 161.833 43.7982 158.98 47.392C156.127 51.009 153.251 54.626 150.329 58.3126C147.407 61.9759 144.67 65.477 142.093 68.7694C139.516 72.0618 137.399 74.8673 135.743 77.1627H170.944C171.703 77.1627 172.324 77.4178 172.83 77.9047C173.314 78.3916 173.567 79.0176 173.567 79.8059C173.567 80.5015 173.314 81.1275 172.83 81.6376C172.347 82.1709 171.726 82.4259 170.944 82.4259H130.842L130.819 82.3795Z" fill="black"/>
<path d="M209.573 82.3795C208.883 82.3795 208.262 82.1245 207.755 81.5912C207.249 81.0579 206.973 80.4551 206.973 79.7595V62.115C205.8 60.5848 204.235 58.4053 202.28 55.5998C200.324 52.7943 198.299 49.7801 196.183 46.5805C194.066 43.3576 192.041 40.2739 190.132 37.3525C188.222 34.4079 186.75 32.0429 185.714 30.2112C185.507 29.7939 185.392 29.3301 185.392 28.8432C185.392 28.2172 185.599 27.6376 186.014 27.1043C186.428 26.571 187.049 26.316 187.9 26.316C188.935 26.316 189.672 26.7101 190.086 27.4753C191.052 29.0751 192.364 31.1618 193.997 33.7123C195.631 36.2627 197.402 38.9755 199.312 41.8505C201.221 44.7256 203.085 47.4847 204.948 50.1511C206.789 52.8175 208.377 55.0897 209.688 56.9678C211.137 54.9506 212.771 52.5856 214.543 49.8729C216.314 47.1833 218.109 44.4242 219.903 41.5723C221.698 38.7436 223.4 36.0772 224.965 33.5963C226.529 31.1155 227.749 29.0751 228.669 27.4521C229.083 26.6869 229.819 26.2928 230.855 26.2928C232.511 26.2928 233.362 27.1275 233.362 28.8201C233.362 29.307 233.27 29.7707 233.04 30.188C232.005 31.927 230.602 34.2224 228.83 37.0742C227.058 39.9029 225.126 42.9171 223.055 46.0936C220.985 49.27 218.983 52.3074 217.073 55.1824C215.164 58.0575 213.553 60.4225 212.219 62.3237V79.7595C212.219 80.4551 211.966 81.0811 211.483 81.5912C210.999 82.1245 210.378 82.3795 209.596 82.3795H209.573Z" fill="black"/>
<path d="M283.633 33.2486C280.228 31.4401 275.926 30.5127 270.703 30.5127C266.539 30.5127 262.697 31.5328 259.2 33.55C255.702 35.5904 252.873 38.3959 250.71 42.0129C248.547 45.6299 247.489 49.8265 247.489 54.6724C247.489 59.0777 248.432 63.0657 250.296 66.5899C252.159 70.1142 254.897 72.9197 258.463 74.9832C262.029 77.0468 266.332 78.0902 271.324 78.0902C273.832 78.0902 276.179 77.8351 278.365 77.3482C280.55 76.8613 282.506 76.1657 284.254 75.2383C284.6 75.0296 284.991 74.9137 285.405 74.9137C286.164 74.9137 286.785 75.1687 287.291 75.6556C287.775 76.1425 288.028 76.7686 288.028 77.5569C288.028 78.6698 287.544 79.4349 286.578 79.8755C284.485 80.9884 282.161 81.8463 279.607 82.4491C277.053 83.052 274.292 83.3534 271.37 83.3534C265.25 83.3534 260.028 82.1013 255.679 79.5741C251.331 77.0468 248.018 73.6153 245.74 69.2795C243.44 64.9437 242.312 60.0747 242.312 54.6956C242.312 48.8064 243.624 43.6591 246.27 39.2538C248.915 34.8484 252.389 31.4169 256.692 28.9592C260.994 26.5015 265.688 25.2726 270.749 25.2726C277.007 25.2726 282.138 26.3856 286.164 28.6346C287.061 29.1911 287.521 29.9562 287.521 30.9532C287.521 31.5792 287.268 32.182 286.785 32.7385C286.302 33.295 285.681 33.5732 284.899 33.5732C284.485 33.5732 284.07 33.4805 283.656 33.2486H283.633Z" fill="black"/>
<path d="M328.428 25.2726C333.352 25.2726 337.861 26.5015 341.911 28.9592C345.96 31.4169 349.204 34.8252 351.597 39.1842C353.989 43.5663 355.186 48.6208 355.186 54.3478C355.186 60.0747 354.127 64.7351 352.011 69.094C349.894 73.4761 346.834 76.9308 342.854 79.4813C338.851 82.0317 334.042 83.307 328.428 83.307C323.137 83.307 318.466 82.0317 314.371 79.4813C310.276 76.9308 307.055 73.4761 304.731 69.1404C302.407 64.8046 301.234 59.9819 301.234 54.6492C301.234 48.76 302.384 43.6127 304.662 39.2074C306.963 34.802 310.138 31.3705 314.187 28.9128C318.259 26.4551 322.999 25.2263 328.405 25.2263L328.428 25.2726ZM328.428 30.5126C324.057 30.5126 320.215 31.556 316.925 33.6196C313.635 35.6831 311.058 38.5118 309.217 42.1288C307.377 45.7458 306.456 49.9193 306.456 54.6724C306.456 58.9386 307.377 62.857 309.217 66.4276C311.058 69.9983 313.635 72.8269 316.971 74.9369C320.307 77.0468 324.126 78.0901 328.428 78.0901C333.007 78.0901 336.918 77.0468 340.139 74.9369C343.36 72.8501 345.822 69.9983 347.478 66.3813C349.135 62.7643 349.986 58.7763 349.986 54.3478C349.986 49.9193 349.02 45.6299 347.11 42.0592C345.201 38.4886 342.624 35.6831 339.357 33.5964C336.09 31.5328 332.455 30.4895 328.428 30.4895V30.5126Z" fill="black"/>
<path d="M374.374 82.3795C373.684 82.3795 373.062 82.1245 372.556 81.5912C372.05 81.0579 371.774 80.4551 371.774 79.7595V28.8433C371.774 28.0781 372.027 27.4521 372.556 26.942C373.085 26.4551 373.684 26.2001 374.374 26.2001H392.711C397.289 26.2001 401.591 27.3826 405.572 29.7707C409.575 32.1589 412.796 35.4513 415.258 39.6479C417.719 43.8446 418.962 48.7136 418.962 54.2318C418.962 59.7501 417.857 64.225 415.672 68.4448C413.486 72.6878 410.426 76.0498 406.515 78.5771C402.581 81.1043 397.979 82.3564 392.711 82.3564H374.374V82.3795ZM376.974 31.4633V77.1395H392.711C397.013 77.1395 400.74 76.0962 403.915 74.0326C407.067 71.9691 409.506 69.2099 411.208 65.7321C412.911 62.2774 413.762 58.4285 413.762 54.2318C413.762 49.8265 412.796 45.9081 410.84 42.4766C408.885 39.0451 406.331 36.3555 403.133 34.3847C399.935 32.4139 396.461 31.4401 392.711 31.4401H376.974V31.4633Z" fill="black"/>
<path d="M479.862 78.9249C479.747 78.5075 479.425 77.6728 478.873 76.3976C477.837 73.8008 476.48 70.5316 474.8 66.59C473.144 62.6252 471.303 58.359 469.279 53.7913C467.254 49.2005 465.206 44.5633 463.09 39.8798C460.973 35.1962 458.971 30.8141 457.108 26.7566C456.694 25.7827 455.865 25.2958 454.6 25.2958H454.186C453.013 25.2958 452.161 25.8291 451.678 26.8725C449.861 30.8605 447.997 35.1035 446.041 39.5784C444.086 44.0532 442.176 48.5049 440.313 52.9103C438.426 57.3156 436.677 61.5586 435.044 65.6161C433.41 69.6737 432.007 73.2907 430.834 76.4208C430.35 77.6033 430.051 78.3916 429.936 78.7857C429.821 79.1799 429.775 79.4581 429.775 79.6668C429.775 80.4319 430.028 81.0812 430.557 81.6144C431.087 82.1477 431.662 82.4028 432.283 82.4028C432.835 82.4028 433.364 82.2404 433.848 81.939C434.331 81.6144 434.676 81.1971 434.883 80.6174C435.573 78.7162 436.355 76.6526 437.23 74.3804C438.104 72.1082 439.024 69.6969 439.99 67.1928L442.176 61.9528C444.109 57.2692 446.156 52.4929 448.273 47.6239C450.39 42.7548 452.414 38.0945 454.37 33.5964C456.464 38.0017 458.603 42.6621 460.835 47.5543C463.067 52.4465 465.183 57.246 467.185 61.9296L469.371 67.1696C470.475 69.6969 471.533 72.1082 472.5 74.4036C473.466 76.7222 474.294 78.8089 475.007 80.7102C475.422 81.8231 476.227 82.3796 477.4 82.3796C478.09 82.3796 478.712 82.1245 479.218 81.5912C479.747 81.058 480 80.4551 480 79.7596C480 79.6204 479.954 79.3422 479.839 78.9249H479.862Z" fill="black"/>
</svg>
