<svg width="240" height="288" viewBox="0 0 240 288" fill="none" xmlns="http://www.w3.org/2000/svg">
<g clip-path="url(#clip0_1_21)">
<path d="M204.575 150.294V167.975C204.575 214.652 166.615 252.55 120 252.55C96.5688 252.55 75.3632 242.906 60.0309 227.45L214.281 73.2612L225.224 62.3184C204.699 25.2241 165.255 0 120 0C53.8485 0 0 53.8485 0 120V137.682H35.3632V120C35.3632 73.323 73.323 35.425 119.938 35.425C142.628 35.425 163.215 44.4513 178.423 59.0417L23.3076 214.158L13.7867 223.74C33.8794 261.886 73.9413 287.975 120 287.975C186.151 287.975 240 234.127 240 167.975V150.294H204.637H204.575Z" fill="#2B5EC0"/>
</g>
<defs>
<clipPath id="clip0_1_21">
<rect width="240" height="287.975" fill="white"/>
</clipPath>
</defs>
</svg>
